<svg xmlns="http://www.w3.org/2000/svg" viewBox="0 0 276 124.73"><defs><style>.cls-1{fill:#e2cc8d;}.cls-2{font-size:27px;}.cls-2,.cls-4{fill:#fff;font-family:SegoeScript, Segoe Script;}.cls-3{letter-spacing:0.18em;}.cls-4{font-size:30px;}.cls-5{letter-spacing:0.04em;}</style></defs><title>alex_1</title><g id="Слой_2" data-name="Слой 2"><g id="Слой_1-2" data-name="Слой 1"><path class="cls-1" d="M276,61.73c-14.05-4.93-18.07-10.58-19-15-1.53-7.27,5-12.72,2-22a20.82,20.82,0,0,0-6-9c-5-4.54-11.12-5.59-15-6-20-2.13-42.88,6.07-62,5C166.92,14.22,138,0,138,0c-15.72,11.62-28.92,14.49-38,15-19.12,1.07-42-7.13-62-5-3.88.41-10,1.46-15,6a20.89,20.89,0,0,0-6,9c-3,9.29,3.53,14.73,2,22-.93,4.42-4.95,10.07-19,15,14.15,7.37,17.52,14.17,18,19,.7,7.06-4.68,11.15-3,18,1.8,7.33,10,11.2,14,13,23.57,10.7,42-3.47,72,0,9.07,1,37,12.73,37,12.73,15-9,27.93-12,37-13,30-3.47,48.43,10.7,72,0,4-1.8,12.2-5.67,14-13,1.68-6.86-3.7-10.94-3-18C258.48,75.9,261.85,69.1,276,61.73ZM251,73c-2.19,6.85,4.08,12.07,2,20-1.7,6.48-7.76,10.07-11,12-21.66,12.86-44.26-4.42-77,3a81.75,81.75,0,0,0-26,11v0a81.75,81.75,0,0,0-26-11c-32.74-7.42-55.34,9.87-77-3-3.24-1.92-9.3-5.52-11-12-2.08-7.92,4.19-13.14,2-20-1.11-3.49-4.54-7.8-15-11,9.22-3.29,12.59-7.71,14-11,3.2-7.47-2-13,1-22,2.62-7.82,9.45-12.09,11-13,9.13-5.37,16.29-.77,39,2,14.79,1.8,27.26,3.2,41-1A65.73,65.73,0,0,0,139,6V6a65.73,65.73,0,0,0,21,11c13.74,4.2,26.21,2.8,41,1,22.71-2.77,29.87-7.37,39-2,1.55.91,8.38,5.17,11,13,3,8.95-2.2,14.52,1,22,1.41,3.29,4.78,7.71,14,11C255.54,65.16,252.11,69.47,251,73Z"/><path d="M251,73c-2.19,6.85,4.08,12.07,2,20-1.7,6.48-7.76,10.07-11,12-21.66,12.86-44.26-4.42-77,3a81.75,81.75,0,0,0-26,11v0a81.75,81.75,0,0,0-26-11c-32.74-7.42-55.34,9.87-77-3-3.24-1.92-9.3-5.52-11-12-2.08-7.92,4.19-13.14,2-20-1.11-3.49-4.54-7.8-15-11,9.22-3.29,12.59-7.71,14-11,3.2-7.47-2-13,1-22,2.62-7.82,9.45-12.09,11-13,9.13-5.37,16.29-.77,39,2,14.79,1.8,27.26,3.2,41-1A65.73,65.73,0,0,0,139,6V6a65.73,65.73,0,0,0,21,11c13.74,4.2,26.21,2.8,41,1,22.71-2.77,29.87-7.37,39-2,1.55.91,8.38,5.17,11,13,3,8.95-2.2,14.52,1,22,1.41,3.29,4.78,7.71,14,11C255.54,65.16,252.11,69.47,251,73Z"/><text class="cls-2" transform="translate(35.57 50.19)">Бу<tspan class="cls-3" x="35.95" y="0">д</tspan><tspan x="54.11" y="0">ет Чётко!</tspan></text><text class="cls-4" transform="translate(53.3 84.87)"><tspan class="cls-5">А</tspan><tspan x="26.31" y="0">лександр</tspan></text></g></g></svg>