<svg xmlns="http://www.w3.org/2000/svg" viewBox="0 0 1911 1077.73"><defs><style>.cls-1{fill:#e2cc8d;}</style></defs><title>fonnn</title><g id="Слой_2" data-name="Слой 2"><g id="Слой_1-2" data-name="Слой 1"><ellipse class="cls-1" cx="313.5" cy="57.78" rx="5.15" ry="5.13"/><ellipse class="cls-1" cx="415.42" cy="42.4" rx="5.15" ry="5.13"/><ellipse class="cls-1" cx="202.83" cy="95.22" rx="5.15" ry="5.13"/><ellipse class="cls-1" cx="496.23" cy="201.79" rx="5.15" ry="5.13"/><ellipse class="cls-1" cx="569.84" cy="143.93" rx="5.15" ry="5.13"/><ellipse class="cls-1" cx="708.93" cy="163.26" rx="5.15" ry="5.13"/><ellipse class="cls-1" cx="322.2" cy="163.26" rx="5.15" ry="5.13"/><ellipse class="cls-1" cx="186.85" cy="163.26" rx="5.15" ry="5.13"/><ellipse class="cls-1" cx="128.84" cy="66.95" rx="5.15" ry="5.13"/><ellipse class="cls-1" cx="491.4" cy="66.95" rx="5.15" ry="5.13"/><ellipse class="cls-1" cx="1052.16" cy="163.26" rx="5.15" ry="5.13"/><ellipse class="cls-1" cx="1175.7" cy="13.17" rx="5.15" ry="5.13"/><ellipse class="cls-1" cx="1462.41" cy="22.92" rx="5.15" ry="5.13"/><ellipse class="cls-1" cx="1339.38" cy="19.33" rx="5.15" ry="5.13"/><ellipse class="cls-1" cx="1491.23" cy="136.75" rx="5.15" ry="5.13"/><ellipse class="cls-1" cx="1626.1" cy="82.4" rx="5.15" ry="5.13"/><ellipse class="cls-1" cx="1636.91" cy="185.47" rx="5.15" ry="5.13"/><ellipse class="cls-1" cx="1728.93" cy="144" rx="5.15" ry="5.13"/><ellipse class="cls-1" cx="1883.63" cy="86.21" rx="5.15" ry="5.13"/><ellipse class="cls-1" cx="1806.28" cy="86.21" rx="5.15" ry="5.13"/><ellipse class="cls-1" cx="1767.61" cy="47.68" rx="5.15" ry="5.13"/><ellipse class="cls-1" cx="1332.69" cy="185.98" rx="5.15" ry="5.13"/><ellipse class="cls-1" cx="626.75" cy="47.68" rx="5.15" ry="5.13"/><ellipse class="cls-1" cx="836.23" cy="55.71" rx="5.15" ry="5.13"/><ellipse class="cls-1" cx="1009.95" cy="41.89" rx="5.15" ry="5.13"/><ellipse class="cls-1" cx="1126.28" cy="152.02" rx="5.15" ry="5.13"/><ellipse class="cls-1" cx="913.58" cy="152.02" rx="5.15" ry="5.13"/><ellipse class="cls-1" cx="457.02" cy="13.23" rx="4.52" ry="4.51"/><ellipse class="cls-1" cx="359.33" cy="50.18" rx="4.52" ry="4.51"/><ellipse class="cls-1" cx="617.58" cy="139.76" rx="4.52" ry="4.51"/><ellipse class="cls-1" cx="736.51" cy="139.76" rx="4.52" ry="4.51"/><ellipse class="cls-1" cx="682.25" cy="88.93" rx="4.52" ry="4.51"/><ellipse class="cls-1" cx="804.47" cy="105.91" rx="4.52" ry="4.51"/><ellipse class="cls-1" cx="464.67" cy="105.91" rx="4.52" ry="4.51"/><ellipse class="cls-1" cx="345.74" cy="105.91" rx="4.52" ry="4.51"/><ellipse class="cls-1" cx="294.77" cy="21.28" rx="4.52" ry="4.51"/><ellipse class="cls-1" cx="613.33" cy="21.28" rx="4.52" ry="4.51"/><ellipse class="cls-1" cx="1106.04" cy="105.91" rx="4.52" ry="4.51"/><ellipse class="cls-1" cx="1491.83" cy="82.62" rx="4.52" ry="4.51"/><ellipse class="cls-1" cx="1610.33" cy="34.86" rx="4.52" ry="4.51"/><ellipse class="cls-1" cx="1632.73" cy="122.84" rx="4.52" ry="4.51"/><ellipse class="cls-1" cx="1700.69" cy="88.99" rx="4.52" ry="4.51"/><ellipse class="cls-1" cx="1836.61" cy="38.21" rx="4.52" ry="4.51"/><ellipse class="cls-1" cx="1768.65" cy="38.21" rx="4.52" ry="4.51"/><ellipse class="cls-1" cx="1352.53" cy="125.87" rx="4.52" ry="4.51"/><ellipse class="cls-1" cx="916.32" cy="11.41" rx="4.52" ry="4.51"/><ellipse class="cls-1" cx="1069.23" cy="11.41" rx="4.52" ry="4.51"/><ellipse class="cls-1" cx="1171.17" cy="96.04" rx="4.52" ry="4.51"/><ellipse class="cls-1" cx="984.28" cy="96.04" rx="4.52" ry="4.51"/><ellipse class="cls-1" cx="15.87" cy="242.56" rx="3.05" ry="3.03"/><ellipse class="cls-1" cx="199.01" cy="184.47" rx="3.05" ry="3.03"/><ellipse class="cls-1" cx="259.31" cy="193.57" rx="3.05" ry="3.03"/><ellipse class="cls-1" cx="133.23" cy="159.59" rx="3.05" ry="3.03"/><ellipse class="cls-1" cx="307.12" cy="99.28" rx="3.05" ry="3.03"/><ellipse class="cls-1" cx="387.2" cy="99.28" rx="3.05" ry="3.03"/><ellipse class="cls-1" cx="350.67" cy="133.5" rx="3.05" ry="3.03"/><ellipse class="cls-1" cx="432.96" cy="122.07" rx="3.05" ry="3.03"/><ellipse class="cls-1" cx="204.16" cy="122.07" rx="3.05" ry="3.03"/><ellipse class="cls-1" cx="124.08" cy="122.07" rx="3.05" ry="3.03"/><ellipse class="cls-1" cx="89.76" cy="179.05" rx="3.05" ry="3.03"/><ellipse class="cls-1" cx="304.26" cy="179.05" rx="3.05" ry="3.03"/><ellipse class="cls-1" cx="636.01" cy="122.07" rx="3.05" ry="3.03"/><ellipse class="cls-1" cx="716.09" cy="190.45" rx="3.05" ry="3.03"/><ellipse class="cls-1" cx="881.81" cy="187.67" rx="3.05" ry="3.03"/><ellipse class="cls-1" cx="811.12" cy="200.25" rx="3.05" ry="3.03"/><ellipse class="cls-1" cx="895.78" cy="137.75" rx="3.05" ry="3.03"/><ellipse class="cls-1" cx="975.56" cy="169.91" rx="3.05" ry="3.03"/><ellipse class="cls-1" cx="990.65" cy="110.67" rx="3.05" ry="3.03"/><ellipse class="cls-1" cx="1036.4" cy="133.47" rx="3.05" ry="3.03"/><ellipse class="cls-1" cx="1207.76" cy="177.57" rx="3.05" ry="3.03"/><ellipse class="cls-1" cx="1127.92" cy="167.65" rx="3.05" ry="3.03"/><ellipse class="cls-1" cx="1082.16" cy="167.65" rx="3.05" ry="3.03"/><ellipse class="cls-1" cx="1059.28" cy="190.45" rx="3.05" ry="3.03"/><ellipse class="cls-1" cx="990.88" cy="163.1" rx="3.05" ry="3.03"/><ellipse class="cls-1" cx="801.98" cy="108.63" rx="3.05" ry="3.03"/><ellipse class="cls-1" cx="384.34" cy="190.45" rx="3.05" ry="3.03"/><ellipse class="cls-1" cx="508.27" cy="185.7" rx="3.05" ry="3.03"/><ellipse class="cls-1" cx="611.23" cy="185.7" rx="3.05" ry="3.03"/><ellipse class="cls-1" cx="679.87" cy="128.72" rx="3.05" ry="3.03"/><ellipse class="cls-1" cx="554.03" cy="128.72" rx="3.05" ry="3.03"/><ellipse class="cls-1" cx="925.9" cy="193.13" rx="3.05" ry="3.03"/><ellipse class="cls-1" cx="971.09" cy="171.96" rx="3.05" ry="3.03"/><ellipse class="cls-1" cx="1031.39" cy="181.06" rx="3.05" ry="3.03"/><ellipse class="cls-1" cx="905.31" cy="147.09" rx="3.05" ry="3.03"/><ellipse class="cls-1" cx="1079.2" cy="86.77" rx="3.05" ry="3.03"/><ellipse class="cls-1" cx="1159.28" cy="86.77" rx="3.05" ry="3.03"/><ellipse class="cls-1" cx="1122.75" cy="121" rx="3.05" ry="3.03"/><ellipse class="cls-1" cx="1205.04" cy="109.56" rx="3.05" ry="3.03"/><ellipse class="cls-1" cx="976.24" cy="109.56" rx="3.05" ry="3.03"/><ellipse class="cls-1" cx="896.16" cy="109.56" rx="3.05" ry="3.03"/><ellipse class="cls-1" cx="861.84" cy="166.54" rx="3.05" ry="3.03"/><ellipse class="cls-1" cx="1076.34" cy="166.54" rx="3.05" ry="3.03"/><ellipse class="cls-1" cx="1408.09" cy="109.56" rx="3.05" ry="3.03"/><ellipse class="cls-1" cx="1488.17" cy="177.94" rx="3.05" ry="3.03"/><ellipse class="cls-1" cx="1650.8" cy="192.59" rx="3.05" ry="3.03"/><ellipse class="cls-1" cx="1583.2" cy="187.74" rx="3.05" ry="3.03"/><ellipse class="cls-1" cx="1667.86" cy="125.24" rx="3.05" ry="3.03"/><ellipse class="cls-1" cx="1747.64" cy="157.4" rx="3.05" ry="3.03"/><ellipse class="cls-1" cx="1762.72" cy="98.17" rx="3.05" ry="3.03"/><ellipse class="cls-1" cx="1808.48" cy="120.96" rx="3.05" ry="3.03"/><ellipse class="cls-1" cx="1836.74" cy="220.45" rx="3.05" ry="3.03"/><ellipse class="cls-1" cx="1900" cy="155.15" rx="3.05" ry="3.03"/><ellipse class="cls-1" cx="1854.24" cy="155.15" rx="3.05" ry="3.03"/><ellipse class="cls-1" cx="1831.36" cy="177.94" rx="3.05" ry="3.03"/><ellipse class="cls-1" cx="1785.6" cy="212.13" rx="3.05" ry="3.03"/><ellipse class="cls-1" cx="1574.06" cy="96.12" rx="3.05" ry="3.03"/><ellipse class="cls-1" cx="1156.42" cy="177.94" rx="3.05" ry="3.03"/><ellipse class="cls-1" cx="1280.35" cy="173.19" rx="3.05" ry="3.03"/><ellipse class="cls-1" cx="1383.31" cy="173.19" rx="3.05" ry="3.03"/><ellipse class="cls-1" cx="1451.94" cy="116.21" rx="3.05" ry="3.03"/><ellipse class="cls-1" cx="1326.11" cy="116.21" rx="3.05" ry="3.03"/><ellipse class="cls-1" cx="947.55" cy="89.36" rx="2.87" ry="2.86"/><ellipse class="cls-1" cx="1009.62" cy="51" rx="2.87" ry="2.86"/><ellipse class="cls-1" cx="1066.53" cy="59.59" rx="2.87" ry="2.86"/><ellipse class="cls-1" cx="947.55" cy="27.52" rx="2.87" ry="2.86"/><ellipse class="cls-1" cx="1152.74" cy="2.9" rx="2.87" ry="2.86"/><ellipse class="cls-1" cx="906.52" cy="45.88" rx="2.87" ry="2.86"/><ellipse class="cls-1" cx="1108.95" cy="45.88" rx="2.87" ry="2.86"/><ellipse class="cls-1" cx="1497.6" cy="56.64" rx="2.87" ry="2.86"/><ellipse class="cls-1" cx="1736.53" cy="22.26" rx="2.87" ry="2.86"/><ellipse class="cls-1" cx="1587.28" cy="65.89" rx="2.87" ry="2.86"/><ellipse class="cls-1" cx="1667.18" cy="6.91" rx="2.87" ry="2.86"/><ellipse class="cls-1" cx="1742.47" cy="37.26" rx="2.87" ry="2.86"/><ellipse class="cls-1" cx="1799.89" cy="2.86" rx="2.87" ry="2.86"/><ellipse class="cls-1" cx="1843.07" cy="99.66" rx="2.87" ry="2.86"/><ellipse class="cls-1" cx="1886.26" cy="35.13" rx="2.87" ry="2.86"/><ellipse class="cls-1" cx="1843.07" cy="35.13" rx="2.87" ry="2.86"/><ellipse class="cls-1" cx="1821.48" cy="56.64" rx="2.87" ry="2.86"/><ellipse class="cls-1" cx="1778.3" cy="88.9" rx="2.87" ry="2.86"/><ellipse class="cls-1" cx="1184.52" cy="56.64" rx="2.87" ry="2.86"/><ellipse class="cls-1" cx="1309.71" cy="28.57" rx="2.87" ry="2.86"/><ellipse class="cls-1" cx="1398.64" cy="52.16" rx="2.87" ry="2.86"/><ellipse class="cls-1" cx="52.09" cy="76.99" rx="2.87" ry="2.86"/><ellipse class="cls-1" cx="114.16" cy="38.63" rx="2.87" ry="2.86"/><ellipse class="cls-1" cx="171.07" cy="47.22" rx="2.87" ry="2.86"/><ellipse class="cls-1" cx="52.09" cy="15.15" rx="2.87" ry="2.86"/><ellipse class="cls-1" cx="11.07" cy="33.51" rx="2.87" ry="2.86"/><ellipse class="cls-1" cx="213.49" cy="33.51" rx="2.87" ry="2.86"/><ellipse class="cls-1" cx="602.14" cy="44.27" rx="2.87" ry="2.86"/><ellipse class="cls-1" cx="767.98" cy="46.82" rx="2.87" ry="2.86"/><ellipse class="cls-1" cx="691.82" cy="53.52" rx="2.87" ry="2.86"/><ellipse class="cls-1" cx="847.02" cy="24.89" rx="2.87" ry="2.86"/><ellipse class="cls-1" cx="918.79" cy="95.49" rx="2.87" ry="2.86"/><ellipse class="cls-1" cx="990.8" cy="22.76" rx="2.87" ry="2.86"/><ellipse class="cls-1" cx="947.62" cy="22.76" rx="2.87" ry="2.86"/><ellipse class="cls-1" cx="926.02" cy="44.27" rx="2.87" ry="2.86"/><ellipse class="cls-1" cx="882.84" cy="76.53" rx="2.87" ry="2.86"/><ellipse class="cls-1" cx="289.06" cy="44.27" rx="2.87" ry="2.86"/><ellipse class="cls-1" cx="406.02" cy="39.79" rx="2.87" ry="2.86"/><ellipse class="cls-1" cx="503.18" cy="39.79" rx="2.87" ry="2.86"/><ellipse class="cls-1" cx="20.13" cy="130.66" rx="5.7" ry="5.68"/><ellipse class="cls-1" cx="233.83" cy="123.29" rx="5.7" ry="5.68"/><ellipse class="cls-1" cx="323" cy="122.89" rx="5.7" ry="5.68"/><ellipse class="cls-1" cx="87.05" cy="59.3" rx="5.7" ry="5.68"/><ellipse class="cls-1" cx="613.82" cy="6.93" rx="5.7" ry="5.68"/><ellipse class="cls-1" cx="493.98" cy="10.48" rx="5.7" ry="5.68"/><ellipse class="cls-1" cx="5.7" cy="95.71" rx="5.7" ry="5.68"/><ellipse class="cls-1" cx="407.12" cy="95.71" rx="5.7" ry="5.68"/><ellipse class="cls-1" cx="1177.86" cy="117.04" rx="5.7" ry="5.68"/><ellipse class="cls-1" cx="1277.46" cy="49.23" rx="5.7" ry="5.68"/><ellipse class="cls-1" cx="1514.14" cy="18.43" rx="5.7" ry="5.68"/><ellipse class="cls-1" cx="1663.46" cy="78.61" rx="5.7" ry="5.68"/><ellipse class="cls-1" cx="1777.32" cy="10.4" rx="5.7" ry="5.68"/><ellipse class="cls-1" cx="1862.96" cy="202.35" rx="5.7" ry="5.68"/><ellipse class="cls-1" cx="1903.3" cy="70.28" rx="5.7" ry="5.68"/><ellipse class="cls-1" cx="1862.96" cy="74.39" rx="5.7" ry="5.68"/><ellipse class="cls-1" cx="1820.14" cy="117.04" rx="5.7" ry="5.68"/><ellipse class="cls-1" cx="1734.5" cy="181.02" rx="5.7" ry="5.68"/><ellipse class="cls-1" cx="550.81" cy="105.76" rx="5.7" ry="5.68"/><ellipse class="cls-1" cx="788.92" cy="108.15" rx="5.7" ry="5.68"/><ellipse class="cls-1" cx="981.61" cy="108.15" rx="5.7" ry="5.68"/><ellipse class="cls-1" cx="276.41" cy="96.27" rx="5.7" ry="5.68"/><ellipse class="cls-1" cx="184.43" cy="104.47" rx="5.7" ry="5.68"/><ellipse class="cls-1" cx="63.85" cy="96.27" rx="5.7" ry="5.68"/><ellipse class="cls-1" cx="25.76" cy="162.57" rx="5.7" ry="5.68"/><ellipse class="cls-1" cx="57.67" cy="134.88" rx="5.7" ry="5.68"/><ellipse class="cls-1" cx="154.44" cy="6.68" rx="5.7" ry="5.68"/><ellipse class="cls-1" cx="100.91" cy="8.74" rx="5.7" ry="5.68"/><ellipse class="cls-1" cx="43.26" cy="14.89" rx="5.7" ry="5.68"/><ellipse class="cls-1" cx="63.85" cy="21.04" rx="5.7" ry="5.68"/><ellipse class="cls-1" cx="11.34" cy="47.71" rx="5.7" ry="5.68"/><ellipse class="cls-1" cx="110.17" cy="74.37" rx="5.7" ry="5.68"/><ellipse class="cls-1" cx="165.77" cy="57.96" rx="5.7" ry="5.68"/><ellipse class="cls-1" cx="92.67" cy="128.73" rx="5.7" ry="5.68"/><ellipse class="cls-1" cx="148.26" cy="84.63" rx="5.7" ry="5.68"/><ellipse class="cls-1" cx="46.35" cy="210.68" rx="5.7" ry="5.68"/><ellipse class="cls-1" cx="236.62" cy="61.53" rx="5.7" ry="5.68"/><ellipse class="cls-1" cx="273.68" cy="159.98" rx="3.05" ry="3.03"/><ellipse class="cls-1" cx="259.54" cy="25.28" rx="5.7" ry="5.68"/><ellipse class="cls-1" cx="358.95" cy="14" rx="5.7" ry="5.68"/><ellipse class="cls-1" cx="393.91" cy="20.15" rx="5.7" ry="5.68"/><ellipse class="cls-1" cx="541.98" cy="42.71" rx="5.7" ry="5.68"/><ellipse class="cls-1" cx="564.63" cy="21.18" rx="5.7" ry="5.68"/><ellipse class="cls-1" cx="645.02" cy="88.86" rx="5.7" ry="5.68"/><ellipse class="cls-1" cx="675.9" cy="86.81" rx="5.7" ry="5.68"/><ellipse class="cls-1" cx="666.23" cy="48.29" rx="5.7" ry="5.68"/><ellipse class="cls-1" cx="679.97" cy="13.24" rx="5.7" ry="5.68"/><ellipse class="cls-1" cx="789.41" cy="22.47" rx="5.7" ry="5.68"/><ellipse class="cls-1" cx="830.59" cy="19.39" rx="5.7" ry="5.68"/><ellipse class="cls-1" cx="807.94" cy="70.67" rx="5.7" ry="5.68"/><ellipse class="cls-1" cx="768.82" cy="67.59" rx="5.7" ry="5.68"/><ellipse class="cls-1" cx="1213.43" cy="27.55" rx="5.7" ry="5.68"/><ellipse class="cls-1" cx="1149.6" cy="42.94" rx="5.7" ry="5.68"/><ellipse class="cls-1" cx="1272.11" cy="17.3" rx="5.7" ry="5.68"/><ellipse class="cls-1" cx="1197.99" cy="67.55" rx="5.7" ry="5.68"/><ellipse class="cls-1" cx="1449.36" cy="67.55" rx="5.7" ry="5.68"/><ellipse class="cls-1" cx="1405.23" cy="27.55" rx="5.7" ry="5.68"/><ellipse class="cls-1" cx="1696.57" cy="30.63" rx="5.7" ry="5.68"/><ellipse class="cls-1" cx="1586.42" cy="8.07" rx="5.7" ry="5.68"/><ellipse class="cls-1" cx="1526.71" cy="67.55" rx="5.7" ry="5.68"/><ellipse class="cls-1" cx="1854.22" cy="13.86" rx="5.7" ry="5.68"/><ellipse class="cls-1" cx="1899.52" cy="11.81" rx="5.7" ry="5.68"/><ellipse class="cls-1" cx="1826.42" cy="9.76" rx="5.7" ry="5.68"/><ellipse class="cls-1" cx="503.75" cy="82.46" rx="5.7" ry="5.68"/><ellipse class="cls-1" cx="548.87" cy="82.46" rx="3.05" ry="3.03"/><ellipse class="cls-1" cx="419.96" cy="165.94" rx="3.05" ry="3.03"/><ellipse class="cls-1" cx="471.52" cy="146.67" rx="3.05" ry="3.03"/><ellipse class="cls-1" cx="523.09" cy="146.67" rx="3.05" ry="3.03"/><ellipse class="cls-1" cx="555.32" cy="165.94" rx="3.05" ry="3.03"/><ellipse class="cls-1" cx="606.88" cy="88.89" rx="3.05" ry="3.03"/><ellipse class="cls-1" cx="581.1" cy="88.89" rx="3.05" ry="3.03"/><ellipse class="cls-1" cx="716.45" cy="114.57" rx="3.05" ry="3.03"/><ellipse class="cls-1" cx="768.02" cy="88.89" rx="3.05" ry="3.03"/><ellipse class="cls-1" cx="806.69" cy="127.41" rx="3.05" ry="3.03"/><ellipse class="cls-1" cx="864.7" cy="127.41" rx="3.05" ry="3.03"/><ellipse class="cls-1" cx="948.49" cy="127.41" rx="3.05" ry="3.03"/><ellipse class="cls-1" cx="806.29" cy="171.02" rx="3.05" ry="3.03"/><ellipse class="cls-1" cx="1289.12" cy="95.82" rx="3.05" ry="3.03"/><ellipse class="cls-1" cx="1304.56" cy="76.33" rx="3.05" ry="3.03"/><ellipse class="cls-1" cx="1282.94" cy="127.61" rx="3.05" ry="3.03"/><ellipse class="cls-1" cx="1241.76" cy="139.92" rx="3.05" ry="3.03"/><ellipse class="cls-1" cx="1247.94" cy="69.15" rx="3.05" ry="3.03"/><ellipse class="cls-1" cx="1414.45" cy="134.79" rx="3.05" ry="3.03"/><ellipse class="cls-1" cx="1370.18" cy="87.62" rx="3.05" ry="3.03"/><ellipse class="cls-1" cx="1556.92" cy="39.41" rx="3.05" ry="3.03"/><ellipse class="cls-1" cx="1392.96" cy="69.15" rx="3.05" ry="3.03"/><ellipse class="cls-1" cx="1605.66" cy="146.21" rx="3.05" ry="3.03"/><ellipse class="cls-1" cx="1537.99" cy="146.21" rx="3.05" ry="3.03"/><ellipse class="cls-1" cx="1673.34" cy="146.21" rx="3.05" ry="3.03"/><ellipse class="cls-1" cx="1731.35" cy="146.21" rx="3.05" ry="3.03"/><ellipse class="cls-1" cx="1818.37" cy="146.21" rx="3.05" ry="3.03"/><ellipse class="cls-1" cx="1895.71" cy="146.21" rx="3.05" ry="3.03"/><ellipse class="cls-1" cx="1654.01" cy="165.47" rx="3.05" ry="3.03"/><ellipse class="cls-1" cx="1721.68" cy="165.47" rx="3.05" ry="3.03"/><ellipse class="cls-1" cx="1847.37" cy="203.99" rx="3.05" ry="3.03"/><ellipse class="cls-1" cx="1883.18" cy="238.64" rx="3.05" ry="3.03"/><ellipse class="cls-1" cx="1903.77" cy="235.56" rx="3.05" ry="3.03"/><ellipse class="cls-1" cx="1895.53" cy="211.98" rx="3.05" ry="3.03"/><ellipse class="cls-1" cx="1795" cy="185.33" rx="3.05" ry="3.03"/><ellipse class="cls-1" cx="1717.66" cy="146.81" rx="3.05" ry="3.03"/><ellipse class="cls-1" cx="1717.66" cy="69.76" rx="3.05" ry="3.03"/><ellipse class="cls-1" cx="1795" cy="69.76" rx="3.05" ry="3.03"/><ellipse class="cls-1" cx="1021.54" cy="31.23" rx="3.05" ry="3.03"/><ellipse class="cls-1" cx="1036.04" cy="41.77" rx="3.05" ry="3.03"/><ellipse class="cls-1" cx="1050.55" cy="61.03" rx="3.05" ry="3.03"/><ellipse class="cls-1" cx="1089.22" cy="61.03" rx="3.05" ry="3.03"/><ellipse class="cls-1" cx="1040.88" cy="99.55" rx="3.05" ry="3.03"/><ellipse class="cls-1" cx="1007.04" cy="99.55" rx="3.05" ry="3.03"/><ellipse class="cls-1" cx="1002.2" cy="99.55" rx="3.05" ry="3.03"/><ellipse class="cls-1" cx="968.37" cy="75.48" rx="3.05" ry="3.03"/><ellipse class="cls-1" cx="958.7" cy="75.48" rx="3.05" ry="3.03"/><ellipse class="cls-1" cx="986" cy="58.04" rx="3.05" ry="3.03"/><ellipse class="cls-1" cx="735.12" cy="37.53" rx="3.05" ry="3.03"/><ellipse class="cls-1" cx="862.06" cy="39.58" rx="3.05" ry="3.03"/><ellipse class="cls-1" cx="335.1" cy="18.99" rx="3.05" ry="3.03"/><ellipse class="cls-1" cx="248.08" cy="105.67" rx="3.05" ry="3.03"/><ellipse class="cls-1" cx="161.07" cy="105.67" rx="3.05" ry="3.03"/><ellipse class="cls-1" cx="46.12" cy="206.07" rx="3.05" ry="3.03"/><ellipse class="cls-1" cx="39.68" cy="206.07" rx="3.05" ry="3.03"/><ellipse class="cls-1" cx="46.12" cy="206.07" rx="3.05" ry="3.03"/><ellipse class="cls-1" cx="80.95" cy="220.43" rx="3.05" ry="3.03"/><ellipse class="cls-1" cx="14.57" cy="201.97" rx="3.05" ry="3.03"/><ellipse class="cls-1" cx="172.39" cy="190.68" rx="3.05" ry="3.03"/><ellipse class="cls-1" cx="227.98" cy="185.56" rx="3.05" ry="3.03"/><ellipse class="cls-1" cx="154.89" cy="217.13" rx="3.05" ry="3.03"/><ellipse class="cls-1" cx="136.36" cy="199.69" rx="3.05" ry="3.03"/><ellipse class="cls-1" cx="110.62" cy="223.28" rx="3.05" ry="3.03"/><ellipse class="cls-1" cx="69.44" cy="214.05" rx="3.05" ry="3.03"/><ellipse class="cls-1" cx="313.83" cy="1039.13" rx="5.15" ry="5.22"/><ellipse class="cls-1" cx="415.85" cy="1054.8" rx="5.15" ry="5.22"/><ellipse class="cls-1" cx="203.04" cy="1001" rx="5.15" ry="5.22"/><ellipse class="cls-1" cx="496.75" cy="892.45" rx="5.15" ry="5.22"/><ellipse class="cls-1" cx="632.25" cy="892.45" rx="5.15" ry="5.22"/><ellipse class="cls-1" cx="570.44" cy="951.38" rx="5.15" ry="5.22"/><ellipse class="cls-1" cx="709.68" cy="931.69" rx="5.15" ry="5.22"/><ellipse class="cls-1" cx="322.54" cy="931.69" rx="5.15" ry="5.22"/><ellipse class="cls-1" cx="187.04" cy="931.69" rx="5.15" ry="5.22"/><ellipse class="cls-1" cx="128.97" cy="1029.8" rx="5.15" ry="5.22"/><ellipse class="cls-1" cx="491.91" cy="1029.8" rx="5.15" ry="5.22"/><ellipse class="cls-1" cx="1053.26" cy="931.69" rx="5.15" ry="5.22"/><ellipse class="cls-1" cx="1349.55" cy="1066.3" rx="5.15" ry="5.22"/><ellipse class="cls-1" cx="1492.8" cy="958.69" rx="5.15" ry="5.22"/><ellipse class="cls-1" cx="1627.8" cy="1014.06" rx="5.15" ry="5.22"/><ellipse class="cls-1" cx="1638.62" cy="909.07" rx="5.15" ry="5.22"/><ellipse class="cls-1" cx="1730.75" cy="951.31" rx="5.15" ry="5.22"/><ellipse class="cls-1" cx="1885.6" cy="1010.18" rx="5.15" ry="5.22"/><ellipse class="cls-1" cx="1808.17" cy="1010.18" rx="5.15" ry="5.22"/><ellipse class="cls-1" cx="1769.46" cy="1049.42" rx="5.15" ry="5.22"/><ellipse class="cls-1" cx="1334.09" cy="908.55" rx="5.15" ry="5.22"/><ellipse class="cls-1" cx="627.41" cy="1049.42" rx="5.15" ry="5.22"/><ellipse class="cls-1" cx="837.11" cy="1041.25" rx="5.15" ry="5.22"/><ellipse class="cls-1" cx="1011.01" cy="1055.33" rx="5.15" ry="5.22"/><ellipse class="cls-1" cx="1127.46" cy="943.14" rx="5.15" ry="5.22"/><ellipse class="cls-1" cx="914.54" cy="943.14" rx="5.15" ry="5.22"/><ellipse class="cls-1" cx="359.7" cy="1046.88" rx="4.53" ry="4.59"/><ellipse class="cls-1" cx="618.22" cy="955.63" rx="4.53" ry="4.59"/><ellipse class="cls-1" cx="737.28" cy="955.63" rx="4.53" ry="4.59"/><ellipse class="cls-1" cx="682.97" cy="1007.41" rx="4.53" ry="4.59"/><ellipse class="cls-1" cx="805.31" cy="990.11" rx="4.53" ry="4.59"/><ellipse class="cls-1" cx="465.15" cy="990.11" rx="4.53" ry="4.59"/><ellipse class="cls-1" cx="346.1" cy="990.11" rx="4.53" ry="4.59"/><ellipse class="cls-1" cx="1107.2" cy="990.11" rx="4.53" ry="4.59"/><ellipse class="cls-1" cx="1493.4" cy="1013.84" rx="4.53" ry="4.59"/><ellipse class="cls-1" cx="1612.02" cy="1062.49" rx="4.53" ry="4.59"/><ellipse class="cls-1" cx="1634.44" cy="972.87" rx="4.53" ry="4.59"/><ellipse class="cls-1" cx="1702.47" cy="1007.35" rx="4.53" ry="4.59"/><ellipse class="cls-1" cx="1838.53" cy="1059.07" rx="4.53" ry="4.59"/><ellipse class="cls-1" cx="1770.5" cy="1059.07" rx="4.53" ry="4.59"/><ellipse class="cls-1" cx="1353.95" cy="969.78" rx="4.53" ry="4.59"/><ellipse class="cls-1" cx="1172.39" cy="1000.17" rx="4.53" ry="4.59"/><ellipse class="cls-1" cx="985.31" cy="1000.17" rx="4.53" ry="4.59"/><ellipse class="cls-1" cx="15.89" cy="850.92" rx="3.05" ry="3.09"/><ellipse class="cls-1" cx="199.22" cy="910.09" rx="3.05" ry="3.09"/><ellipse class="cls-1" cx="259.58" cy="900.82" rx="3.05" ry="3.09"/><ellipse class="cls-1" cx="133.37" cy="935.43" rx="3.05" ry="3.09"/><ellipse class="cls-1" cx="307.44" cy="996.87" rx="3.05" ry="3.09"/><ellipse class="cls-1" cx="387.6" cy="996.87" rx="3.05" ry="3.09"/><ellipse class="cls-1" cx="351.04" cy="962" rx="3.05" ry="3.09"/><ellipse class="cls-1" cx="433.41" cy="973.65" rx="3.05" ry="3.09"/><ellipse class="cls-1" cx="204.38" cy="973.65" rx="3.05" ry="3.09"/><ellipse class="cls-1" cx="124.21" cy="973.65" rx="3.05" ry="3.09"/><ellipse class="cls-1" cx="89.86" cy="915.61" rx="3.05" ry="3.09"/><ellipse class="cls-1" cx="304.58" cy="915.61" rx="3.05" ry="3.09"/><ellipse class="cls-1" cx="636.68" cy="973.65" rx="3.05" ry="3.09"/><ellipse class="cls-1" cx="716.84" cy="904" rx="3.05" ry="3.09"/><ellipse class="cls-1" cx="882.74" cy="906.83" rx="3.05" ry="3.09"/><ellipse class="cls-1" cx="811.97" cy="894.02" rx="3.05" ry="3.09"/><ellipse class="cls-1" cx="896.72" cy="957.68" rx="3.05" ry="3.09"/><ellipse class="cls-1" cx="976.59" cy="924.92" rx="3.05" ry="3.09"/><ellipse class="cls-1" cx="991.68" cy="985.26" rx="3.05" ry="3.09"/><ellipse class="cls-1" cx="1037.49" cy="962.04" rx="3.05" ry="3.09"/><ellipse class="cls-1" cx="1209.03" cy="917.11" rx="3.05" ry="3.09"/><ellipse class="cls-1" cx="1129.1" cy="927.22" rx="3.05" ry="3.09"/><ellipse class="cls-1" cx="1083.3" cy="927.22" rx="3.05" ry="3.09"/><ellipse class="cls-1" cx="1060.39" cy="904" rx="3.05" ry="3.09"/><ellipse class="cls-1" cx="991.91" cy="931.86" rx="3.05" ry="3.09"/><ellipse class="cls-1" cx="802.82" cy="987.34" rx="3.05" ry="3.09"/><ellipse class="cls-1" cx="384.74" cy="904" rx="3.05" ry="3.09"/><ellipse class="cls-1" cx="508.8" cy="908.84" rx="3.05" ry="3.09"/><ellipse class="cls-1" cx="611.87" cy="908.84" rx="3.05" ry="3.09"/><ellipse class="cls-1" cx="680.58" cy="966.88" rx="3.05" ry="3.09"/><ellipse class="cls-1" cx="554.61" cy="966.88" rx="3.05" ry="3.09"/><ellipse class="cls-1" cx="926.87" cy="901.27" rx="3.05" ry="3.09"/><ellipse class="cls-1" cx="972.11" cy="922.83" rx="3.05" ry="3.09"/><ellipse class="cls-1" cx="1032.47" cy="913.56" rx="3.05" ry="3.09"/><ellipse class="cls-1" cx="906.26" cy="948.17" rx="3.05" ry="3.09"/><ellipse class="cls-1" cx="1080.33" cy="1009.61" rx="3.05" ry="3.09"/><ellipse class="cls-1" cx="1160.49" cy="1009.61" rx="3.05" ry="3.09"/><ellipse class="cls-1" cx="1123.92" cy="974.74" rx="3.05" ry="3.09"/><ellipse class="cls-1" cx="1206.3" cy="986.39" rx="3.05" ry="3.09"/><ellipse class="cls-1" cx="977.26" cy="986.39" rx="3.05" ry="3.09"/><ellipse class="cls-1" cx="897.1" cy="986.39" rx="3.05" ry="3.09"/><ellipse class="cls-1" cx="862.75" cy="928.35" rx="3.05" ry="3.09"/><ellipse class="cls-1" cx="1077.47" cy="928.35" rx="3.05" ry="3.09"/><ellipse class="cls-1" cx="1409.57" cy="986.39" rx="3.05" ry="3.09"/><ellipse class="cls-1" cx="1489.73" cy="916.74" rx="3.05" ry="3.09"/><ellipse class="cls-1" cx="1652.53" cy="901.81" rx="3.05" ry="3.09"/><ellipse class="cls-1" cx="1584.86" cy="906.76" rx="3.05" ry="3.09"/><ellipse class="cls-1" cx="1669.6" cy="970.42" rx="3.05" ry="3.09"/><ellipse class="cls-1" cx="1749.47" cy="937.66" rx="3.05" ry="3.09"/><ellipse class="cls-1" cx="1764.57" cy="998" rx="3.05" ry="3.09"/><ellipse class="cls-1" cx="1810.38" cy="974.78" rx="3.05" ry="3.09"/><ellipse class="cls-1" cx="1838.67" cy="873.44" rx="3.05" ry="3.09"/><ellipse class="cls-1" cx="1901.99" cy="939.96" rx="3.05" ry="3.09"/><ellipse class="cls-1" cx="1856.18" cy="939.96" rx="3.05" ry="3.09"/><ellipse class="cls-1" cx="1833.28" cy="916.74" rx="3.05" ry="3.09"/><ellipse class="cls-1" cx="1787.47" cy="881.92" rx="3.05" ry="3.09"/><ellipse class="cls-1" cx="1575.71" cy="1000.08" rx="3.05" ry="3.09"/><ellipse class="cls-1" cx="1157.63" cy="916.74" rx="3.05" ry="3.09"/><ellipse class="cls-1" cx="1281.69" cy="921.58" rx="3.05" ry="3.09"/><ellipse class="cls-1" cx="1384.75" cy="921.58" rx="3.05" ry="3.09"/><ellipse class="cls-1" cx="1453.47" cy="979.62" rx="3.05" ry="3.09"/><ellipse class="cls-1" cx="1327.5" cy="979.62" rx="3.05" ry="3.09"/><ellipse class="cls-1" cx="948.54" cy="1006.97" rx="2.88" ry="2.92"/><ellipse class="cls-1" cx="1010.68" cy="1046.05" rx="2.88" ry="2.92"/><ellipse class="cls-1" cx="1067.64" cy="1037.3" rx="2.88" ry="2.92"/><ellipse class="cls-1" cx="948.54" cy="1069.96" rx="2.88" ry="2.92"/><ellipse class="cls-1" cx="907.47" cy="1051.26" rx="2.88" ry="2.92"/><ellipse class="cls-1" cx="1110.11" cy="1051.26" rx="2.88" ry="2.92"/><ellipse class="cls-1" cx="1499.17" cy="1040.3" rx="2.88" ry="2.92"/><ellipse class="cls-1" cx="1652.81" cy="1026.22" rx="2.88" ry="2.92"/><ellipse class="cls-1" cx="1588.95" cy="1030.88" rx="2.88" ry="2.92"/><ellipse class="cls-1" cx="1744.3" cy="1060.05" rx="2.88" ry="2.92"/><ellipse class="cls-1" cx="1845.01" cy="996.48" rx="2.88" ry="2.92"/><ellipse class="cls-1" cx="1888.23" cy="1062.21" rx="2.88" ry="2.92"/><ellipse class="cls-1" cx="1845.01" cy="1062.21" rx="2.88" ry="2.92"/><ellipse class="cls-1" cx="1823.39" cy="1040.3" rx="2.88" ry="2.92"/><ellipse class="cls-1" cx="1780.16" cy="1007.44" rx="2.88" ry="2.92"/><ellipse class="cls-1" cx="1185.76" cy="1040.3" rx="2.88" ry="2.92"/><ellipse class="cls-1" cx="1302.84" cy="1044.87" rx="2.88" ry="2.92"/><ellipse class="cls-1" cx="1400.11" cy="1044.87" rx="2.88" ry="2.92"/><ellipse class="cls-1" cx="52.14" cy="1019.57" rx="2.88" ry="2.92"/><ellipse class="cls-1" cx="114.28" cy="1058.65" rx="2.88" ry="2.92"/><ellipse class="cls-1" cx="171.25" cy="1049.9" rx="2.88" ry="2.92"/><ellipse class="cls-1" cx="11.08" cy="1063.86" rx="2.88" ry="2.92"/><ellipse class="cls-1" cx="213.71" cy="1063.86" rx="2.88" ry="2.92"/><ellipse class="cls-1" cx="602.78" cy="1052.9" rx="2.88" ry="2.92"/><ellipse class="cls-1" cx="756.42" cy="1038.81" rx="2.88" ry="2.92"/><ellipse class="cls-1" cx="692.55" cy="1043.48" rx="2.88" ry="2.92"/><ellipse class="cls-1" cx="847.9" cy="1072.64" rx="2.88" ry="2.92"/><ellipse class="cls-1" cx="919.75" cy="1000.72" rx="2.88" ry="2.92"/><ellipse class="cls-1" cx="991.84" cy="1074.81" rx="2.88" ry="2.92"/><ellipse class="cls-1" cx="948.61" cy="1074.81" rx="2.88" ry="2.92"/><ellipse class="cls-1" cx="926.99" cy="1052.9" rx="2.88" ry="2.92"/><ellipse class="cls-1" cx="883.76" cy="1020.04" rx="2.88" ry="2.92"/><ellipse class="cls-1" cx="289.36" cy="1052.9" rx="2.88" ry="2.92"/><ellipse class="cls-1" cx="406.44" cy="1057.47" rx="2.88" ry="2.92"/><ellipse class="cls-1" cx="503.71" cy="1057.47" rx="2.88" ry="2.92"/><ellipse class="cls-1" cx="20.15" cy="964.9" rx="5.71" ry="5.78"/><ellipse class="cls-1" cx="234.08" cy="972.4" rx="5.71" ry="5.78"/><ellipse class="cls-1" cx="323.34" cy="972.81" rx="5.71" ry="5.78"/><ellipse class="cls-1" cx="87.14" cy="1037.59" rx="5.71" ry="5.78"/><ellipse class="cls-1" cx="5.71" cy="1000.5" rx="5.71" ry="5.78"/><ellipse class="cls-1" cx="407.55" cy="1000.5" rx="5.71" ry="5.78"/><ellipse class="cls-1" cx="1179.1" cy="978.77" rx="5.71" ry="5.78"/><ellipse class="cls-1" cx="1259.22" cy="1014.41" rx="5.71" ry="5.78"/><ellipse class="cls-1" cx="1665.21" cy="1017.92" rx="5.71" ry="5.78"/><ellipse class="cls-1" cx="1864.91" cy="891.87" rx="5.71" ry="5.78"/><ellipse class="cls-1" cx="1905.29" cy="1026.4" rx="5.71" ry="5.78"/><ellipse class="cls-1" cx="1864.91" cy="1022.22" rx="5.71" ry="5.78"/><ellipse class="cls-1" cx="1822.05" cy="978.77" rx="5.71" ry="5.78"/><ellipse class="cls-1" cx="1736.32" cy="913.6" rx="5.71" ry="5.78"/><ellipse class="cls-1" cx="551.39" cy="990.27" rx="5.71" ry="5.78"/><ellipse class="cls-1" cx="789.75" cy="987.83" rx="5.71" ry="5.78"/><ellipse class="cls-1" cx="982.64" cy="987.83" rx="5.71" ry="5.78"/><ellipse class="cls-1" cx="276.7" cy="999.94" rx="5.71" ry="5.78"/><ellipse class="cls-1" cx="184.62" cy="991.58" rx="5.71" ry="5.78"/><ellipse class="cls-1" cx="63.91" cy="999.94" rx="5.71" ry="5.78"/><ellipse class="cls-1" cx="25.78" cy="932.4" rx="5.71" ry="5.78"/><ellipse class="cls-1" cx="57.73" cy="960.6" rx="5.71" ry="5.78"/><ellipse class="cls-1" cx="11.35" cy="1049.4" rx="5.71" ry="5.78"/><ellipse class="cls-1" cx="110.29" cy="1022.24" rx="5.71" ry="5.78"/><ellipse class="cls-1" cx="165.94" cy="1038.95" rx="5.71" ry="5.78"/><ellipse class="cls-1" cx="92.77" cy="966.87" rx="5.71" ry="5.78"/><ellipse class="cls-1" cx="148.42" cy="1011.79" rx="5.71" ry="5.78"/><ellipse class="cls-1" cx="46.39" cy="883.39" rx="5.71" ry="5.78"/><ellipse class="cls-1" cx="236.87" cy="1035.32" rx="5.71" ry="5.78"/><ellipse class="cls-1" cx="273.97" cy="935.03" rx="3.05" ry="3.09"/><ellipse class="cls-1" cx="542.55" cy="1054.49" rx="5.71" ry="5.78"/><ellipse class="cls-1" cx="645.69" cy="1007.48" rx="5.71" ry="5.78"/><ellipse class="cls-1" cx="676.61" cy="1009.57" rx="5.71" ry="5.78"/><ellipse class="cls-1" cx="666.93" cy="1048.81" rx="5.71" ry="5.78"/><ellipse class="cls-1" cx="777.87" cy="1060.48" rx="5.71" ry="5.78"/><ellipse class="cls-1" cx="808.79" cy="1026.01" rx="5.71" ry="5.78"/><ellipse class="cls-1" cx="769.63" cy="1029.14" rx="5.71" ry="5.78"/><ellipse class="cls-1" cx="1214.7" cy="1069.93" rx="5.71" ry="5.78"/><ellipse class="cls-1" cx="1150.8" cy="1054.26" rx="5.71" ry="5.78"/><ellipse class="cls-1" cx="1262.11" cy="1066.8" rx="5.71" ry="5.78"/><ellipse class="cls-1" cx="1199.24" cy="1029.19" rx="5.71" ry="5.78"/><ellipse class="cls-1" cx="1450.88" cy="1029.19" rx="5.71" ry="5.78"/><ellipse class="cls-1" cx="1406.7" cy="1069.93" rx="5.71" ry="5.78"/><ellipse class="cls-1" cx="1698.35" cy="1066.8" rx="5.71" ry="5.78"/><ellipse class="cls-1" cx="1528.31" cy="1029.19" rx="5.71" ry="5.78"/><ellipse class="cls-1" cx="504.28" cy="1013.99" rx="5.71" ry="5.78"/><ellipse class="cls-1" cx="549.45" cy="1013.99" rx="3.05" ry="3.09"/><ellipse class="cls-1" cx="420.4" cy="928.97" rx="3.05" ry="3.09"/><ellipse class="cls-1" cx="472.02" cy="948.59" rx="3.05" ry="3.09"/><ellipse class="cls-1" cx="523.64" cy="948.59" rx="3.05" ry="3.09"/><ellipse class="cls-1" cx="555.9" cy="928.97" rx="3.05" ry="3.09"/><ellipse class="cls-1" cx="626.87" cy="896.26" rx="3.05" ry="3.09"/><ellipse class="cls-1" cx="607.52" cy="1007.45" rx="3.05" ry="3.09"/><ellipse class="cls-1" cx="581.71" cy="1007.45" rx="3.05" ry="3.09"/><ellipse class="cls-1" cx="717.2" cy="981.29" rx="3.05" ry="3.09"/><ellipse class="cls-1" cx="768.82" cy="1007.45" rx="3.05" ry="3.09"/><ellipse class="cls-1" cx="807.54" cy="968.21" rx="3.05" ry="3.09"/><ellipse class="cls-1" cx="865.61" cy="968.21" rx="3.05" ry="3.09"/><ellipse class="cls-1" cx="949.49" cy="968.21" rx="3.05" ry="3.09"/><ellipse class="cls-1" cx="807.13" cy="923.79" rx="3.05" ry="3.09"/><ellipse class="cls-1" cx="1290.47" cy="1000.39" rx="3.05" ry="3.09"/><ellipse class="cls-1" cx="1305.93" cy="1020.24" rx="3.05" ry="3.09"/><ellipse class="cls-1" cx="1284.29" cy="968.01" rx="3.05" ry="3.09"/><ellipse class="cls-1" cx="1243.06" cy="955.47" rx="3.05" ry="3.09"/><ellipse class="cls-1" cx="1249.25" cy="1027.55" rx="3.05" ry="3.09"/><ellipse class="cls-1" cx="1415.93" cy="960.69" rx="3.05" ry="3.09"/><ellipse class="cls-1" cx="1371.62" cy="1008.75" rx="3.05" ry="3.09"/><ellipse class="cls-1" cx="1339.04" cy="1029.64" rx="3.05" ry="3.09"/><ellipse class="cls-1" cx="1394.42" cy="1027.55" rx="3.05" ry="3.09"/><ellipse class="cls-1" cx="1607.35" cy="949.07" rx="3.05" ry="3.09"/><ellipse class="cls-1" cx="1539.6" cy="949.07" rx="3.05" ry="3.09"/><ellipse class="cls-1" cx="1675.1" cy="949.07" rx="3.05" ry="3.09"/><ellipse class="cls-1" cx="1733.17" cy="949.07" rx="3.05" ry="3.09"/><ellipse class="cls-1" cx="1820.27" cy="949.07" rx="3.05" ry="3.09"/><ellipse class="cls-1" cx="1897.7" cy="949.07" rx="3.05" ry="3.09"/><ellipse class="cls-1" cx="1655.74" cy="929.44" rx="3.05" ry="3.09"/><ellipse class="cls-1" cx="1723.49" cy="929.44" rx="3.05" ry="3.09"/><ellipse class="cls-1" cx="1849.31" cy="890.2" rx="3.05" ry="3.09"/><ellipse class="cls-1" cx="1885.15" cy="854.91" rx="3.05" ry="3.09"/><ellipse class="cls-1" cx="1905.76" cy="858.04" rx="3.05" ry="3.09"/><ellipse class="cls-1" cx="1897.52" cy="882.07" rx="3.05" ry="3.09"/><ellipse class="cls-1" cx="1796.88" cy="909.21" rx="3.05" ry="3.09"/><ellipse class="cls-1" cx="1719.45" cy="948.45" rx="3.05" ry="3.09"/><ellipse class="cls-1" cx="1719.45" cy="1026.94" rx="3.05" ry="3.09"/><ellipse class="cls-1" cx="1796.88" cy="1026.94" rx="3.05" ry="3.09"/><ellipse class="cls-1" cx="1022.61" cy="1066.18" rx="3.05" ry="3.09"/><ellipse class="cls-1" cx="1037.13" cy="1055.45" rx="3.05" ry="3.09"/><ellipse class="cls-1" cx="1051.65" cy="1035.83" rx="3.05" ry="3.09"/><ellipse class="cls-1" cx="1090.36" cy="1035.83" rx="3.05" ry="3.09"/><ellipse class="cls-1" cx="1041.97" cy="996.59" rx="3.05" ry="3.09"/><ellipse class="cls-1" cx="1008.09" cy="996.59" rx="3.05" ry="3.09"/><ellipse class="cls-1" cx="1003.25" cy="996.59" rx="3.05" ry="3.09"/><ellipse class="cls-1" cx="969.38" cy="1021.11" rx="3.05" ry="3.09"/><ellipse class="cls-1" cx="959.7" cy="1021.11" rx="3.05" ry="3.09"/><ellipse class="cls-1" cx="987.03" cy="1038.87" rx="3.05" ry="3.09"/><ellipse class="cls-1" cx="749.29" cy="1045.14" rx="3.05" ry="3.09"/><ellipse class="cls-1" cx="862.96" cy="1057.68" rx="3.05" ry="3.09"/><ellipse class="cls-1" cx="248.34" cy="990.35" rx="3.05" ry="3.09"/><ellipse class="cls-1" cx="161.24" cy="990.35" rx="3.05" ry="3.09"/><ellipse class="cls-1" cx="46.17" cy="888.09" rx="3.05" ry="3.09"/><ellipse class="cls-1" cx="39.72" cy="888.09" rx="3.05" ry="3.09"/><ellipse class="cls-1" cx="46.17" cy="888.09" rx="3.05" ry="3.09"/><ellipse class="cls-1" cx="81.03" cy="873.46" rx="3.05" ry="3.09"/><ellipse class="cls-1" cx="14.58" cy="892.27" rx="3.05" ry="3.09"/><ellipse class="cls-1" cx="172.57" cy="903.76" rx="3.05" ry="3.09"/><ellipse class="cls-1" cx="228.22" cy="908.98" rx="3.05" ry="3.09"/><ellipse class="cls-1" cx="155.05" cy="876.82" rx="3.05" ry="3.09"/><ellipse class="cls-1" cx="136.5" cy="894.58" rx="3.05" ry="3.09"/><ellipse class="cls-1" cx="110.74" cy="870.56" rx="3.05" ry="3.09"/><ellipse class="cls-1" cx="69.51" cy="879.96" rx="3.05" ry="3.09"/><ellipse class="cls-1" cx="740.8" cy="15.65" rx="5.7" ry="5.68"/><ellipse class="cls-1" cx="799.48" cy="41.29" rx="5.7" ry="5.68"/><ellipse class="cls-1" cx="1383.47" cy="9.27" rx="3.05" ry="3.03"/><ellipse class="cls-1" cx="1368.03" cy="58.5" rx="3.05" ry="3.03"/><ellipse class="cls-1" cx="1546.13" cy="12.35" rx="3.05" ry="3.03"/><ellipse class="cls-1" cx="1438.04" cy="11.32" rx="3.05" ry="3.03"/><ellipse class="cls-1" cx="1725" cy="3.12" rx="3.05" ry="3.03"/><ellipse class="cls-1" cx="1664.26" cy="32.86" rx="3.05" ry="3.03"/><ellipse class="cls-1" cx="1641.61" cy="19.53" rx="3.05" ry="3.03"/><ellipse class="cls-1" cx="1658.08" cy="58.5" rx="3.05" ry="3.03"/><ellipse class="cls-1" cx="1114.55" cy="24.28" rx="3.05" ry="3.03"/><ellipse class="cls-1" cx="1092.13" cy="27.89" rx="3.05" ry="3.03"/><ellipse class="cls-1" cx="268.4" cy="8.83" rx="3.05" ry="3.03"/><ellipse class="cls-1" cx="207.66" cy="11.9" rx="3.05" ry="3.03"/><ellipse class="cls-1" cx="420.77" cy="78.56" rx="3.05" ry="3.03"/><ellipse class="cls-1" cx="444.44" cy="74.46" rx="3.05" ry="3.03"/></g></g></svg>